<?xml version="1.0" encoding="UTF-8" standalone="no"?>
<!-- Created with Inkscape (http://www.inkscape.org/) -->

<svg
   version="1.1"
   id="svg2"
   width="1008"
   height="557.33331"
   viewBox="0 0 1008 557.33331"
   sodipodi:docname="chalogo1-color-noback.svg"
   inkscape:version="1.1.2 (0a00cf5339, 2022-02-04)"
   xmlns:inkscape="http://www.inkscape.org/namespaces/inkscape"
   xmlns:sodipodi="http://sodipodi.sourceforge.net/DTD/sodipodi-0.dtd"
   xmlns="http://www.w3.org/2000/svg"
   xmlns:svg="http://www.w3.org/2000/svg">
  <defs
     id="defs6" />
  <sodipodi:namedview
     id="namedview4"
     pagecolor="#ffffff"
     bordercolor="#666666"
     borderopacity="1.0"
     inkscape:pageshadow="2"
     inkscape:pageopacity="0.0"
     inkscape:pagecheckerboard="0"
     showgrid="false"
     inkscape:zoom="1.9686996"
     inkscape:cx="531.31519"
     inkscape:cy="322.54794"
     inkscape:window-width="1617"
     inkscape:window-height="843"
     inkscape:window-x="3025"
     inkscape:window-y="622"
     inkscape:window-maximized="0"
     inkscape:current-layer="g8" />
  <g
     inkscape:groupmode="layer"
     inkscape:label="Image"
     id="g8">
    <path
       style="fill:#08ab7e;fill-opacity:1;stroke-width:1"
       d="m 80.510327,553.28037 c -7.63976,-4.15643 -7.28143,3.35903 -7.28143,-152.71815 0,-156.69658 -0.39686,-148.66922 7.55331,-152.78041 2.90998,-1.50481 11.84823,-1.88625 44.200663,-1.88625 55.47688,0 51.57936,-3.98146 51.57936,52.69005 0,31.45589 0.35311,38.79186 2.02258,42.02025 3.96152,7.66076 5.8414,7.95636 50.59746,7.95636 h 40.75246 l 4.98042,-4.56199 4.98042,-4.562 0.66666,-41.77133 c 0.47947,-30.04222 1.13755,-42.59452 2.34366,-44.70297 4.00622,-7.00349 4.45838,-7.06837 49.26532,-7.06837 h 41.68229 l 6.53689,2.25372 2.17184,5.52753 v 146.88541 146.8854 l -2.17184,5.52753 -6.53689,2.25373 h -41.68229 c -45.62299,0 -45.45826,0.0267 -49.61659,-8.01472 -1.63371,-3.15926 -1.99239,-10.83759 -1.99239,-42.65195 0,-42.05658 -0.21946,-43.49936 -7.4865,-49.2156 -3.41344,-2.68502 -4.98716,-2.7844 -44.09286,-2.7844 -44.53828,0 -46.43884,0.30004 -50.39806,7.95636 -1.66922,3.2279 -2.02258,10.55695 -2.02258,41.95044 0,42.22735 -0.76357,47.01776 -8.09905,50.81109 -5.37085,2.77738 -82.847913,2.77762 -87.952853,2.7e-4 z M 492.10249,539.95068 c -6.45259,-2.30067 -11.29827,-6.72387 -13.93692,-12.7218 -2.70008,-6.13758 -4.01176,-43.49983 -1.6801,-47.85657 1.39835,-2.61284 2.47123,-2.89007 9.82328,-2.53831 l 8.25348,0.39488 0.66667,22.45416 c 0.64136,21.60173 0.78616,22.55081 3.81437,25 5.44779,4.40612 14.38768,2.91862 19.06852,-3.17278 0.11894,-0.15476 0.56894,-10.18138 1,-22.28138 l 0.78378,-22 h 8.66666 8.66667 l 0.40508,21.33333 c 0.54293,28.59409 -1.73064,35.39883 -13.63361,40.80489 -6.62084,3.00703 -24.19895,3.32863 -31.89788,0.58358 z m 219.97609,0.0693 c -6.37257,-2.36765 -12.21116,-7.79208 -15.92039,-14.79108 -2.23978,-4.22626 -2.82649,-7.68586 -2.82649,-16.66666 0,-13.04343 2.53548,-19.43879 10.46781,-26.40347 6.17767,-5.42406 13.7829,-7.35609 26.16124,-6.64598 17.31604,0.99337 26.55595,8.76472 29.54758,24.8514 3.02532,16.26782 -2.49606,31.12323 -13.96308,37.56806 -7.08576,3.98243 -25.30771,5.11917 -33.46667,2.08776 z m 22.01752,-14.23179 c 3.71407,-1.9877 6.46613,-9.21639 6.46613,-16.98422 0,-12.90815 -4.55956,-18.90845 -14.36834,-18.90845 -8.80008,0 -13.63166,6.61617 -13.63166,18.66666 0,7.95486 1.86782,13.26463 5.73514,16.30368 3.30806,2.59957 11.74449,3.09209 15.79873,0.92233 z m -330.8672,12.2127 c 0,-3.86605 19.79937,-56.31781 22.31095,-59.10534 2.54434,-2.8239 17.2086,-3.2945 20.77405,-0.66667 2.34304,1.72687 23.58167,55.82113 23.58167,60.06192 0,2.0933 -1.04855,2.34813 -8.23684,2.0017 l -8.23686,-0.39696 -7.613,-20.66666 c -4.44737,-12.07308 -8.401,-20.82549 -9.50805,-21.04864 -1.33017,-0.26811 -4.25636,5.8922 -9.81681,20.66666 l -7.92178,21.04864 -7.66666,0.39987 c -6.93599,0.36177 -7.66667,0.14309 -7.66667,-2.29452 z m 166.27683,1.72704 c -0.51892,-0.51892 -0.9435,-10.92349 -0.9435,-23.12128 0,-15.4716 -0.48381,-22.66158 -1.6,-23.77777 -0.89997,-0.89997 -5.21274,-1.6 -9.85734,-1.6 -8.76083,0 -9.87599,-0.82805 -9.87599,-7.33333 0,-7.53138 -0.85193,-7.33334 31.54567,-7.33334 h 29.92702 l -0.40301,7 -0.40301,7 -8.22044,0.39403 c -4.58247,0.21965 -8.84574,1.14745 -9.63336,2.09648 -0.83738,1.00897 -1.56226,10.89621 -1.77956,24.27264 l -0.36664,22.57018 -8.72318,0.38795 c -4.79773,0.21336 -9.14773,-0.0367 -9.66666,-0.55556 z m 50.32168,-0.86256 c -0.35814,-0.93327 -0.4893,-15.18327 -0.2915,-31.66666 l 0.35966,-29.96983 9,-0.39425 9,-0.39426 v 8.43091 c 0,11.94572 1.98013,14.36344 11.74226,14.33719 10.66016,-0.0287 11.47438,-0.84316 12.25774,-12.26191 l 0.66666,-9.71768 9.02428,-0.3948 9.02428,-0.39481 -0.35761,31.72814 -0.35761,31.72813 h -8.66667 -8.66667 L 662.16749,529.266 c -0.49918,-13.44125 -1.98174,-15.37045 -11.81191,-15.37045 -10.56876,0 -12.46001,2.42858 -12.46001,15.99999 v 10.66667 h -8.70851 c -5.81941,0 -8.92453,-0.56293 -9.35965,-1.69684 z m 152.73482,-30.38561 v -32.08245 l 24.56276,0.41578 c 23.93311,0.40514 24.65146,0.49919 28.02243,3.66927 8.10923,7.62596 7.46147,20.55012 -1.39591,27.85111 l -4.74581,3.9119 4.61868,6.49175 c 6.28243,8.83024 10.60763,17.69182 9.73941,19.95436 -0.52541,1.3692 -3.3207,1.8692 -10.42638,1.86501 l -9.70851,-0.005 -5.29089,-10.32762 c -5.6431,-11.01545 -9.97547,-16.32799 -13.31518,-16.32799 -1.6954,0 -2.0606,1.9893 -2.0606,11.22427 0,15.62002 0.12434,15.44239 -10.80932,15.44239 h -9.19068 z m 32.32295,-6.65145 c 6.11715,-1.69884 8.02839,-6.52792 4.24025,-10.71376 -1.92924,-2.13179 -3.78501,-2.59372 -9.15804,-2.27962 l -6.73849,0.39395 -0.41983,5.86785 c -0.58065,8.11572 1.97082,9.53799 12.07611,6.73158 z m 40.27556,37.03706 c -0.35813,-0.93327 -0.48929,-15.18327 -0.29149,-31.66666 l 0.35965,-29.96983 8.54525,-0.40245 c 5.93419,-0.2795 8.88168,0.12786 9.64626,1.33333 1.25889,1.98473 1.56277,57.08737 0.3325,60.2934 -1.04358,2.71956 -17.56618,3.08589 -18.59217,0.41221 z m 51.01165,0.86256 c -0.51892,-0.51892 -0.94349,-10.97003 -0.94349,-23.22468 0,-16.5183 -0.443,-22.64884 -1.71279,-23.70266 -0.94202,-0.78183 -5.29202,-1.6053 -9.66666,-1.82994 l -7.95388,-0.40844 -0.40391,-7.02569 -0.40391,-7.02571 29.73724,0.35904 29.73724,0.35903 v 6.66667 6.66666 l -8.22044,0.39403 c -4.58246,0.21965 -8.84573,1.14745 -9.63336,2.09648 -0.83737,1.00897 -1.56225,10.89621 -1.77956,24.27264 l -0.36664,22.57018 -8.72317,0.38795 c -4.79773,0.21336 -9.14773,-0.0367 -9.66667,-0.55556 z m 69.33334,0 c -0.51892,-0.51892 -0.9435,-6.56119 -0.9435,-13.42724 v -12.48373 l -10.74848,-16.04353 c -5.91166,-8.82394 -10.55546,-17.05626 -10.31954,-18.29404 0.34146,-1.79163 2.22385,-2.33004 9.23193,-2.64059 l 8.803,-0.39008 4.51655,7.58733 c 7.59586,12.76024 9.82833,12.7145 17.30574,-0.35466 l 4.13947,-7.23504 8.85521,0.39126 c 7.13329,0.31519 8.94039,0.8382 9.29339,2.6897 0.241,1.26414 -4.2445,9.06414 -9.96764,17.33333 l -10.40579,15.03491 -0.68525,13.99999 -0.68525,14 -8.72318,0.38795 c -4.79773,0.21336 -9.14773,-0.0367 -9.66666,-0.55556 z M 408.70003,429.39492 c -1.0668,-1.28541 -1.41473,-10.95634 -1.16325,-32.33333 l 0.35879,-30.49937 h 9.33333 9.33333 l 0.40059,9.27774 c 0.22032,5.10276 0.23802,11.59985 0.23802,11.59985 0,0 5.92106,1.1157 12.56965,0.84329 l 9.45841,-0.38755 0.66667,-10.66667 0.66666,-10.66666 h 9.33334 9.33333 l 0.35879,30.49937 c 0.25148,21.37699 -0.0964,31.04792 -1.16326,32.33333 -1.98344,2.3899 -15.01006,2.46728 -16.97404,0.1008 -0.79109,-0.95321 -1.61456,-6.80321 -1.82992,-13 l -0.39157,-11.26684 h -10.66667 -10.66666 l -0.39158,11.26688 c -0.21536,6.19679 -1.03882,12.04679 -1.82992,13 -1.96397,2.36644 -14.9906,2.28906 -16.97404,-0.1008 z m 89.76788,-0.68978 c -6.79132,-3.08455 -13.14556,-10.66584 -15.25534,-18.20127 -0.8893,-3.17621 -1.39238,-10.22088 -1.11798,-15.65481 0.65599,-12.99056 5.40166,-21.21923 15.11814,-26.21383 5.6766,-2.91797 8.36646,-3.40635 18.76146,-3.40635 11.14316,0 12.67086,0.3274 18.69475,4.0065 9.27656,5.66564 13.89607,14.9471 13.88585,27.89925 -0.004,5.18517 -0.63681,11.69399 -1.40606,14.46403 -1.82014,6.55428 -8.51974,14.08985 -15.24172,17.14358 -7.4585,3.38832 -25.94243,3.3678 -33.4391,-0.0371 z m 21.93587,-12.28748 c 5.88444,-2.05132 8.53031,-7.81768 8.63096,-18.81015 0.0931,-10.16415 -2.54187,-15.29064 -8.95852,-17.42952 -5.40571,-1.80191 -12.51932,-0.0225 -14.99104,3.74977 -7.41249,11.31291 -3.50708,31.09147 6.52256,33.03278 1.62497,0.31452 3.31496,0.65357 3.75553,0.75344 0.44056,0.0999 2.7088,-0.48348 5.04051,-1.29632 z m 54.02655,12.27065 c -11.39167,-5.17348 -14.14263,-13.70075 -13.59015,-42.12609 l 0.38872,-20 h 9.33333 9.33334 l 0.36772,21.95066 c 0.34088,20.34826 0.57685,22.17328 3.23242,25 2.0923,2.22716 4.35711,3.04934 8.39986,3.04934 4.04274,0 6.30756,-0.82218 8.39985,-3.04934 2.65557,-2.82672 2.89155,-4.65174 3.23243,-25 l 0.36772,-21.95066 h 9.33333 9.33333 v 23.33333 c 0,22.4 -0.13333,23.57333 -3.33333,29.33333 -4.98395,8.97111 -11.90553,12.00808 -27.28252,11.97072 -8.85673,-0.0215 -13.49939,-0.68714 -17.51605,-2.51129 z m 73.46524,0.93227 c -5.50671,-1.9243 -9.23023,-5.58278 -12.05295,-11.84244 -2.9898,-6.63019 -1.96236,-7.79846 7.73893,-8.79972 7.23095,-0.7463 7.4478,-0.66967 9.53707,3.37054 1.17584,2.27382 3.29223,4.75199 4.70309,5.50707 4.1117,2.20051 11.41968,1.63901 13.8672,-1.06547 5.00607,-5.53164 1.46979,-9.65626 -11.0467,-12.8846 -17.05599,-4.39917 -24.08376,-10.19564 -24.07499,-19.85689 0.007,-6.78789 3.78116,-13.24372 9.60272,-16.42212 3.35552,-1.83201 7.3822,-2.39807 17.05896,-2.39807 14.78635,0 20.29993,2.31315 24.65029,10.34167 3.341,6.16576 2.11555,7.56908 -7.46036,8.54323 -6.86245,0.69812 -7.32838,0.5428 -10.22985,-3.41007 -2.50768,-3.41639 -3.95848,-4.14149 -8.28641,-4.14149 -3.66114,0 -5.62943,0.71548 -6.5137,2.36776 -2.22042,4.14889 0.68548,6.56145 10.82366,8.98606 19.83085,4.7427 27.39085,11.81934 25.98178,24.32058 -0.85236,7.56206 -4.23132,12.19673 -11.65932,15.99226 -4.80381,2.45463 -7.94066,2.98087 -17.25528,2.89474 -6.26128,-0.0579 -13.18414,-0.73426 -15.38414,-1.50304 z m 57.26568,-0.0872 c -0.35786,-0.93254 -0.48903,-15.48254 -0.2915,-32.33334 l 0.35915,-30.63782 h 9.33333 9.33334 l 0.35878,30.49937 c 0.25148,21.37699 -0.0964,31.04792 -1.16325,32.33333 -2.01115,2.42328 -17.00865,2.53908 -17.92985,0.13844 z m 35.58873,-0.0783 c -1.13023,-1.36184 -1.47117,-10.46511 -1.2132,-32.39351 l 0.35879,-30.49938 h 9.31777 9.31776 l 9.34891,13.69676 c 7.18864,10.53185 9.96508,13.61278 12.01556,13.33333 2.41242,-0.32877 2.73022,-1.63463 3.33333,-13.69676 l 0.66667,-13.33333 h 8.66666 8.66667 l 0.35849,31.23909 c 0.2766,24.10217 -0.028,31.48443 -1.33333,32.31292 -2.65873,1.68752 -14.96036,1.29377 -17.24581,-0.55201 -1.13502,-0.91667 -5.8361,-7.24708 -10.44683,-14.06758 -6.6516,-9.83944 -13.37372,-12 -13.37372,-12 0,0 -0.67759,1.4432 -1.29213,13.73424 l -0.66667,13.33337 -7.45347,0.3935 c -5.20557,0.27484 -7.92756,-0.17773 -9.02545,-1.50062 z m 89.75709,-0.65824 c -6.59222,-3.0852 -11.60353,-8.83948 -14.65373,-16.82631 -2.80745,-7.35121 -2.21931,-24.54752 1.05421,-30.82272 5.64306,-10.81756 16.76246,-16.58562 31.97292,-16.58562 12.31138,0 18.98319,2.23689 24.33271,8.15817 2.57531,2.85056 4.68239,5.70765 4.68239,6.34908 0,2.22892 -3.65531,4.17564 -10.1421,5.40143 -6.07929,1.14878 -6.78078,0.98924 -10.27878,-2.33787 -5.061,-4.81375 -13.83688,-5.00573 -18.7291,-0.40973 -8.22864,7.7304 -6.98944,29.61845 1.93823,34.23513 5.27437,2.72748 12.80921,1.84916 18.30264,-0.77021 6.61067,-3.15209 5.28184,-7.15172 -1.75175,-7.72535 -7.07193,-0.57677 -8.89154,-2.33431 -8.40656,-8.11987 l 0.40075,-4.78075 15.04556,-0.37743 15.04555,-0.37743 -0.37888,14.37743 -0.3789,14.37743 -7.33333,3.96372 c -6.58247,3.55786 -8.7668,4.00616 -21.33333,4.37824 -11.54072,0.34169 -14.94656,-0.0285 -19.3885,-2.10732 z M 426.78553,320.06635 c -8.96356,-2.52412 -12.92712,-5.87244 -17.51959,-14.80013 -7.23636,-14.06737 -4.70279,-34.4125 5.38879,-43.27301 13.7043,-12.03255 41.71125,-9.58572 49.18773,4.29727 3.31367,6.15309 2.21488,8.14453 -5.47319,9.91953 -6.27508,1.44877 -6.58229,1.37659 -10.01276,-2.35248 -6.3154,-6.86512 -15.0176,-6.62891 -20.37981,0.5532 -2.23975,2.99989 -2.7478,5.65474 -2.7478,14.35864 0,10.37474 0.12373,10.78885 4.35437,14.56889 2.65196,2.36953 5.8397,3.89063 8.15352,3.89063 4.47543,0 10.528,-4.37743 12.22535,-8.84176 1.38355,-3.63902 2.41447,-3.7685 10.60009,-1.33135 4.09679,1.21976 6.10748,2.58788 6.33884,4.31309 0.5844,4.3577 -5.41802,13.00112 -11.27061,16.2296 -6.97656,3.8485 -19.98872,4.96178 -28.84493,2.46788 z m 249.57486,0.0613 c -10.65974,-3.01326 -17.60862,-9.45914 -20.94736,-19.43108 -1.9922,-5.95023 -1.93505,-19.09787 0.11267,-25.93276 7.11025,-23.73193 47.12344,-28.30605 60.35791,-6.89983 3.77105,6.09954 4.01189,7.30208 4.01189,20.03155 0,12.72946 -0.24084,13.93201 -4.01189,20.03154 -2.72084,4.40084 -5.94694,7.4849 -10.02486,9.58347 -7.50409,3.86175 -20.89314,5.04963 -29.49842,2.61711 z m 21.02991,-17.3599 c 5.06244,-5.88544 5.52884,-21.29804 0.86157,-28.47153 -2.35417,-3.6183 -9.57786,-6.14753 -14.22598,-4.98092 -1.90934,0.4792 -4.96975,2.65184 -6.80092,4.82806 -2.88666,3.4306 -3.32312,5.22863 -3.28215,13.52114 0.0512,10.37568 1.77101,14.89389 6.76617,17.77625 4.69518,2.70927 13.22774,1.34202 16.68131,-2.673 z m -222.98663,15.86203 c -1.09234,-2.84659 19.51788,-56.84778 23.05276,-60.40092 2.23134,-2.24285 4.53088,-3 9.11142,-3 11.8316,0 12.24154,0.55331 24.32668,32.83408 8.06356,21.53864 10.50364,29.49203 9.44093,30.77249 -1.57904,1.90263 -11.44177,2.31923 -14.15473,0.59788 -0.94318,-0.59842 -5.15564,-10.33924 -9.36106,-21.64625 -4.63709,-12.46764 -8.34821,-20.55816 -9.43002,-20.55816 -1.07598,0 -4.76864,7.93644 -9.30563,20 -4.13699,11 -8.0072,20.75 -8.60048,21.66667 -1.56849,2.42346 -14.13288,2.20205 -15.07987,-0.26575 z m 77.44778,0.29823 c -0.3708,-0.96627 -0.51256,-15.54387 -0.31503,-32.39467 l 0.35915,-30.63782 h 9.33333 9.33333 v 31.99999 32 l -9.0183,0.39467 c -6.52364,0.28549 -9.2048,-0.0913 -9.69248,-1.36219 z m 35.69938,0.0895 c -2.11706,-2.11706 -2.36504,-57.30435 -0.27502,-61.20958 1.2689,-2.37097 2.96292,-2.57841 21,-2.57157 10.79086,0.004 21.76432,0.60317 24.38544,1.3313 13.26452,3.68479 16.61484,20.60195 6.00556,30.32463 -5.29878,4.85596 -5.66479,5.9352 -2.81502,8.3003 3.47179,2.88132 11.56526,18.69034 11.1313,21.7428 -0.38879,2.73466 -1.12894,2.96019 -9.71479,2.96019 h -9.29392 l -6.03941,-10.81461 c -7.56202,-13.54115 -8.95028,-15.18542 -12.82104,-15.18542 -3.03396,0 -3.13254,0.3658 -3.50342,13 l -0.38161,13 -8.0114,0.3886 c -5.08221,0.24652 -8.61661,-0.21661 -9.66667,-1.26666 z m 33.47718,-38.37889 c 3.97869,-1.51269 5.55018,-5.64284 3.56118,-9.35934 -1.20904,-2.25914 -2.77046,-2.71706 -9.26454,-2.71706 -5.89212,0 -8.00923,0.518 -8.61976,2.10906 -1.30406,3.39829 -0.93427,7.89933 0.79068,9.62427 1.91317,1.91318 8.93453,2.09118 13.53244,0.34304 z M 8.236447,227.55584 C 3.2102866,224.43946 0.0760867,217.40792 1.0468167,211.42598 1.7279467,207.22865 13.982907,194.47607 100.85943,107.56028 182.83365,25.549003 201.15895,7.8548195 207.2289,4.8541365 c 6.57775,-3.251712 8.77583,-3.624274 21.33333,-3.615883 12.75536,0.0085 14.65195,0.345681 21.33334,3.792445 5.88162,3.034193 26.55305,22.9602235 104.4227,100.6573115 53.39916,53.28082 97.94916,98.49441 99,100.47467 3.25882,6.14102 2.45423,13.74889 -1.97888,18.71184 l -3.8895,4.35437 -53.1105,0.38613 c -29.21077,0.21238 -54.48608,0.0445 -56.16736,-0.37301 -1.68128,-0.41752 -25.16724,-22.30208 -52.19101,-48.63234 -52.07339,-50.73702 -52.63531,-51.17612 -62.41003,-48.76924 -2.42468,0.59704 -20.2568,17.43513 -52.40108,49.48008 l -48.72566,48.57505 -55.274343,-0.0355 c -49.68166,-0.0319 -55.64457,-0.26503 -58.93346,-2.30424 z"
       id="path3000"
       sodipodi:nodetypes="ssssssscccssscccccccssssssssssssscsssscccssssssssssssssssssssssscssscsssssssscccssscsssscccssscccccccssscssccssscssccssssccssscsssscsssssssscccccccssscsssscssscsscssscccsssscccscscccccsssscccssssssssssssssssssssssscccssssscccssssssssssscsssssssssssssscccsssssscccssscccsssscscsssssssssssssssscccccssssssssssssssssssssscssssssssssssssssssssssssssscccccssssssssssscssscssssssssssssssssssscssssscsss" />
  </g>
</svg>
